# xmcd
#
# Track frame offsets:
#	150
#	20123
#	39430
#	55853
#	74693
#	90031
#	105981
#	123838
#	140030
#	154718
#	172255
#	192045
#
# Disc length: 2742 seconds
# Revision: 2
# Processed by: cddbd v1.5.2PL0 Copyright (c) Steve Scherf et al.
# Submitted via: dBpowerAMP V12.0
#
DISCID=9d0ab40c
DTITLE=Various Artist - Fearless
DYEAR=2008
DGENRE=R&B/Soul
TTITLE0=Jazmine Sullivan (By Salaam Remi) - Bust Your Windows
TTITLE1=Jazmine Sullivan (By Missy Elliot and Cainon Lamb) - Need U Bad
TTITLE2=Jazmine Sullivan (By Ivan Barias and Carvin Haggins) - My Foolish Heart
TTITLE3=Jazmine Sullivan (By Salaam Remi) - Lions, Tigers and Bears
TTITLE4=Jazmine Sullivan (By Salaam Remi) - Call Me Guilty
TTITLE5=Jazmine Sullivan (By Fisticuffs) - One Night Stand
TTITLE6=Jazmine Sullivan (By Stargate) - After The Hurricane
TTITLE7=Jazmine Sullivan (By Missy Elliot and Cainon Lamb) - Dream Big
TTITLE8=Jazmine Sullivan (By Salaam Remi) - Live A Lie
TTITLE9=Jazmine Sullivan (By Dirty Harry) - Fear
TTITLE10=Jazmine Sullivan (By Jazmine Sullivan and Anthony Bell) - In Love With Another Man
TTITLE11=Jazmine Sullivan (By Jack Splash) - Switch! (Bonus Track)
EXTD=
EXTT0=
EXTT1=
EXTT2=
EXTT3=
EXTT4=
EXTT5=
EXTT6=
EXTT7=
EXTT8=
EXTT9=
EXTT10=
EXTT11=
PLAYORDER=
